<?xml version="1.0" encoding="UTF-8"?>
<svg width="216px" height="60px" viewBox="0 0 216 60" version="1.1" xmlns="http://www.w3.org/2000/svg" xmlns:xlink="http://www.w3.org/1999/xlink">
    <!-- Generator: sketchtool 48.2 (47327) - http://www.bohemiancoding.com/sketch -->
    <title>6E2733B6-79C5-470F-9A12-391CD3A9DCF6</title>
    <desc>Created with sketchtool.</desc>
    <defs>
        <linearGradient x1="49.9975625%" y1="100%" x2="49.9975625%" y2="0.0133770316%" id="linearGradient-1">
            <stop stop-color="#E30613" offset="0%"></stop>
            <stop stop-color="#E94E1B" offset="100%"></stop>
        </linearGradient>
    </defs>
    <g id="footer" stroke="none" stroke-width="1" fill="none" fill-rule="evenodd" transform="translate(-842.000000, 0.000000)">
        <g id="sahin-copy" transform="translate(842.000000, 0.000000)" fill-rule="nonzero">
            <path d="M139.133581,50.9538462 C139.768783,51.3144448 140.288166,51.8480275 140.631098,52.4923077 C140.995231,53.1755701 141.179708,53.9399548 141.167247,54.7138462 C141.181458,55.6548969 140.945413,56.5828689 140.483195,57.4030769 C140.042148,58.1826071 139.396562,58.8272728 138.61592,59.2676923 C137.815356,59.7219396 136.908274,59.9555549 135.987561,59.9446154 C135.216872,59.9576102 134.456218,59.7687787 133.781341,59.3969231 C133.142092,59.0385362 132.61917,58.5046128 132.274579,57.8584615 C131.908669,57.1681172 131.724195,56.3963341 131.738431,55.6153846 C131.726556,54.6802542 131.965965,53.7590455 132.431726,52.9476923 C132.877339,52.1677048 133.525684,51.5224098 134.308245,51.08 C135.103563,50.6297128 136.003903,50.3972528 136.918117,50.4061538 C137.692156,50.3894886 138.456729,50.5785014 139.133581,50.9538462 Z M134.653352,51.6923077 C133.994035,52.0671116 133.451263,52.6165641 133.084964,53.28 C132.694509,53.9813796 132.495785,54.7730215 132.508759,55.5753846 C132.496883,56.2364842 132.650455,56.8900875 132.955549,57.4769231 C133.240453,58.0165373 133.674704,58.4629864 134.206562,58.7630769 C134.772443,59.0734434 135.409842,59.2304446 136.05535,59.2184615 C136.834814,59.2264049 137.602456,59.0278667 138.280057,58.6430769 C138.941294,58.2690568 139.487005,57.7209303 139.857689,57.0584615 C140.24986,56.3544148 140.448645,55.5593428 140.433894,54.7538462 C140.445188,54.1006639 140.29153,53.4551643 139.987104,52.8769231 C139.69762,52.3414425 139.264407,51.8971266 138.736091,51.5938462 C138.172182,51.2775271 137.533981,51.117142 136.887304,51.1292308 C136.105856,51.1160466 135.334922,51.3103636 134.653352,51.6923077 Z" id="Shape" fill="#2B2B28"></path>
            <path d="M144.726163,56.9476923 C144.678397,57.183922 144.650567,57.4237379 144.642967,57.6646154 C144.642967,58.4051282 144.984993,58.7753846 145.669044,58.7753846 C146.273234,58.7658267 146.861772,58.5820371 147.363766,58.2461538 L147.551726,58.8430769 C146.974871,59.2486729 146.288237,59.4697136 145.582767,59.4769231 C145.134862,59.5061234 144.694999,59.3478198 144.36873,59.04 C144.06273,58.6960692 143.908347,58.2435621 143.940428,57.7846154 C143.944784,57.5087593 143.973657,57.233834 144.026705,56.9630769 L145.129815,51.3846154 L143.844907,51.3846154 L143.965078,50.7692308 L145.14214,50.7692308 L145.641312,48.3076923 L146.423966,48.3076923 L145.927874,50.7692308 L148.981455,50.7692308 L148.861284,51.3846154 L145.832354,51.3846154 L144.726163,56.9476923 Z" id="Shape" fill="#2B2B28"></path>
            <path d="M156.992867,50.9538462 C157.62807,51.3144448 158.147452,51.8480275 158.490385,52.4923077 C158.855588,53.175287 159.041129,53.9396873 159.029615,54.7138462 C159.044223,55.6553348 158.807022,56.583668 158.342482,57.4030769 C157.901434,58.1826071 157.255849,58.8272728 156.475207,59.2676923 C155.674643,59.7219396 154.76756,59.9555549 153.846847,59.9446154 C153.076158,59.9576102 152.315505,59.7687787 151.640628,59.3969231 C151.001379,59.0385362 150.478457,58.5046128 150.133866,57.8584615 C149.767956,57.1681172 149.583482,56.3963341 149.597718,55.6153846 C149.585843,54.6802542 149.825252,53.7590455 150.291013,52.9476923 C150.7376,52.1684493 151.385713,51.5233854 152.167532,51.08 C152.962849,50.6297128 153.86319,50.3972528 154.777404,50.4061538 C155.551442,50.3894886 156.316016,50.5785014 156.992867,50.9538462 Z M152.506476,51.6923077 C151.847159,52.0671116 151.304387,52.6165641 150.938088,53.28 C150.547634,53.9813796 150.348909,54.7730215 150.361883,55.5753846 C150.350007,56.2364842 150.503579,56.8900875 150.808673,57.4769231 C151.093577,58.0165373 151.527828,58.4629864 152.059686,58.7630769 C152.625567,59.0734434 153.262966,59.2304446 153.908474,59.2184615 C154.687938,59.2264049 155.455581,59.0278667 156.133181,58.6430769 C156.794418,58.2690568 157.340129,57.7209303 157.710813,57.0584615 C158.102984,56.3544148 158.30177,55.5593428 158.287019,54.7538462 C158.298312,54.1006639 158.144654,53.4551643 157.840228,52.8769231 C157.550744,52.3414425 157.117531,51.8971266 156.589215,51.5938462 C156.025306,51.2775271 155.387105,51.117142 154.740428,51.1292308 C153.95898,51.1160466 153.188047,51.3103636 152.506476,51.6923077 Z" id="Shape" fill="#2B2B28"></path>
            <path d="M177.227846,51.1815385 C177.812065,51.721117 178.124974,52.4926873 178.081369,53.2861538 C178.078513,53.6193348 178.041342,53.9513387 177.970442,54.2769231 L176.833438,60 L176.081598,60 L177.200114,54.3446154 C177.256036,54.0669037 177.286973,53.7847541 177.292553,53.5015385 C177.329012,52.8589556 177.079857,52.2330161 176.611583,51.7907692 C176.065205,51.348845 175.37195,51.1290777 174.670357,51.1753846 C173.665118,51.1651375 172.686593,51.4984478 171.897175,52.12 C171.103522,52.7629467 170.54108,53.6464495 170.294893,54.6369231 L169.225678,60 L168.473837,60 L169.592354,54.3446154 C169.645929,54.066614 169.675822,53.7845798 169.681712,53.5015385 C169.719387,52.8593703 169.471321,52.2333334 169.003823,51.7907692 C168.456353,51.348646 167.762073,51.1289027 167.059515,51.1753846 C165.9902,51.1591984 164.952423,51.5371299 164.144593,52.2369231 C163.330893,52.9670317 162.783476,53.9466491 162.588531,55.0215385 L161.614836,60 L160.862996,60 L162.75184,50.4615385 L163.50368,50.4615385 L163.026077,52.8430769 C163.445152,52.1077963 164.053725,51.4979651 164.788588,51.0769231 C165.534794,50.6626544 166.372214,50.4395899 167.225906,50.4276923 C168.227332,50.4276923 169.009986,50.6676923 169.573866,51.1415385 C170.14798,51.6463022 170.475016,52.3746324 170.470528,53.1384615 C170.884227,52.3270252 171.507629,51.6407729 172.276177,51.1507692 C173.048299,50.6850528 173.931655,50.4353022 174.833666,50.4276923 C175.859743,50.4307692 176.657803,50.6830769 177.227846,51.1815385 Z" id="Shape" fill="#2B2B28"></path>
            <path d="M187.651926,50.9538462 C188.286306,51.3144992 188.804679,51.8481428 189.146362,52.4923077 C189.511565,53.175287 189.697106,53.9396873 189.685592,54.7138462 C189.699803,55.6548969 189.463758,56.5828689 189.001541,57.4030769 C188.55965,58.1830125 187.91296,58.8277179 187.131184,59.2676923 C186.33062,59.7219396 185.423537,59.9555549 184.502825,59.9446154 C183.732136,59.9576102 182.971482,59.7687787 182.296605,59.3969231 C181.658282,59.0383465 181.136403,58.5043964 180.792924,57.8584615 C180.424924,57.1687862 180.239321,56.39672 180.253695,55.6153846 C180.24182,54.6802542 180.481229,53.7590455 180.94699,52.9476923 C181.393815,52.1675834 182.043175,51.5223367 182.826591,51.08 C183.620669,50.6294184 184.520102,50.3969183 185.433381,50.4061538 C186.20841,50.3893848 186.974003,50.5783868 187.651926,50.9538462 Z M183.15321,51.6923077 C182.493892,52.0671116 181.95112,52.6165641 181.584822,53.28 C181.197324,53.9824142 180.999794,54.7735295 181.011698,55.5753846 C180.998242,56.2366515 181.151904,56.8906393 181.458488,57.4769231 C181.744593,58.0213486 182.183675,58.4704996 182.721826,58.7692308 C183.287707,59.0795973 183.925106,59.2365984 184.570613,59.2246154 C185.350078,59.2325588 186.11772,59.0340205 186.795321,58.6492308 C187.456558,58.2752107 188.002269,57.7270842 188.372953,57.0646154 C188.765124,56.3605686 188.963909,55.5654967 188.949158,54.76 C188.961926,54.1066589 188.808182,53.4607975 188.502368,52.8830769 C188.212884,52.3475963 187.779671,51.9032805 187.251355,51.6 C186.687669,51.2831216 186.049313,51.1226975 185.402568,51.1353846 C184.616499,51.1177293 183.839966,51.3099925 183.15321,51.6923077 Z" id="Shape" fill="#2B2B28"></path>
            <path d="M193.235264,56.9476923 C193.185279,57.1836402 193.156406,57.4235596 193.148987,57.6646154 C193.148987,58.4051282 193.491013,58.7753846 194.175064,58.7753846 C194.779254,58.7658267 195.367792,58.5820371 195.869786,58.2461538 L196.057746,58.8430769 C195.482194,59.2489595 194.796443,59.470062 194.091869,59.4769231 C193.643024,59.5062413 193.202165,59.3479809 192.87475,59.04 C192.569969,58.6953614 192.415765,58.2433794 192.446448,57.7846154 C192.450804,57.5087593 192.479677,57.233834 192.532725,56.9630769 L193.645078,51.3846154 L192.360171,51.3846154 L192.480342,50.7692308 L193.660485,50.7692308 L194.156576,48.3076923 L194.93923,48.3076923 L194.430813,50.7692308 L197.512126,50.7692308 L197.391954,51.3846154 L194.363024,51.3846154 L193.235264,56.9476923 Z" id="Shape" fill="#2B2B28"></path>
            <path d="M200.990927,50.4615385 L199.086676,60 L198.334836,60 L200.239087,50.4615385 L200.990927,50.4615385 Z M201.641084,47.1846154 C201.74015,47.2902437 201.793323,47.4307312 201.788987,47.5753846 C201.792818,47.7862723 201.706532,47.9888101 201.551726,48.1323077 C201.406346,48.2777921 201.209071,48.3596885 201.003252,48.36 C200.85972,48.3656369 200.72064,48.3096359 200.62117,48.2061538 C200.520667,48.0941961 200.468604,47.9470791 200.476348,47.7969231 C200.473866,47.5922862 200.559082,47.396345 200.710528,47.2584615 C200.855908,47.1129771 201.053183,47.0310807 201.259001,47.0307692 C201.403485,47.0267178 201.542712,47.0850203 201.641084,47.1907692 L201.641084,47.1846154 Z" id="Shape" fill="#2B2B28"></path>
            <polygon id="Shape" fill="#2B2B28" points="211.550585 50.4615385 205.794693 60 204.987389 60 203.024593 50.4615385 203.831897 50.4615385 205.523538 59.1815385 210.724793 50.4615385"></polygon>
            <path d="M23.365592,46.0030769 C41.5453352,45.5723077 47.0054208,45.8830769 53.1803709,33.3876923 C54.5325759,30.6369971 55.6180383,27.763383 56.4219116,24.8061538 L63.2069615,0 L15.0583738,0 C14.204664,0.00365465336 13.4538856,0.564686883 13.2095863,1.38153846 L11.678174,6.46153846 L53.2389158,6.46153846 C55.676234,6.46153846 50.4349215,13.0707692 40.8027389,14.9076923 C35.3241655,15.9538462 21.6708702,16.2892308 9.65067047,16.3723077 C9.2469435,16.3764911 8.89264314,16.6418379 8.77557775,17.0276923 L8.43971469,18.1538462 L45.2644793,18.1538462 C47.421398,18.1538462 42.7778602,24 34.2333809,25.6461538 C29.303281,26.5876923 16.9164051,26.8769231 6.14721826,26.9476923 C5.75480788,26.9495641 5.41021955,27.2085757 5.29985735,27.5846154 L4.99172611,28.6153846 L35.9774037,28.6153846 C38.1343224,28.6153846 33.5123538,34.2676923 25.0510699,35.84 C21.1193153,36.5692308 12.417689,36.8953846 3.59281027,37.0276923 C2.99535431,37.0356082 2.47181681,37.4289468 2.29865906,38 L2.05831669,38.7692308 L8.27024251,38.7692308 C10.1868188,38.7692308 6.75115549,43.3846154 0,45.5384615 L1.71629101,45.64 L9.59828816,45.8338462 L23.365592,46.0030769 Z" id="Shape" fill="url(#linearGradient-1)"></path>
            <path d="M122.050785,43.4861538 C120.17433,44.3981265 118.154002,44.9790024 116.079201,45.2030769 C114.304637,45.3967322 112.521299,45.4994311 110.736205,45.5107692 C107.679544,45.5107692 105.150813,44.6830769 103.150014,43.0276923 C101.149215,41.3723077 100.485706,38.6379487 101.159486,34.8246154 C101.788074,31.2615385 103.277375,28.7169231 105.627389,27.1907692 C107.977404,25.6646154 110.811184,24.6471795 114.12873,24.1384615 C114.65445,24.1258127 115.177676,24.0619197 115.690956,23.9476923 C116.307218,23.8215385 117.003595,23.7138462 117.783167,23.64 C121.610157,23.1292308 123.673609,22.0266667 123.973524,20.3323077 C124.199486,19.0584615 123.685934,18.2317949 122.432867,17.8523077 C121.291764,17.487874 120.102714,17.2949935 118.904765,17.28 C117.792405,17.2679628 116.685695,17.4395028 115.62933,17.7876923 C114.637565,18.1251024 113.796472,18.8005039 113.253638,19.6953846 L104.718402,19.6953846 C105.521169,17.0686515 107.180664,14.7854928 109.43281,13.2092308 C112.070414,11.2584615 115.51224,10.2830769 119.758288,10.2830769 C124.51378,10.2830769 127.938146,11.0882051 130.031384,12.6984615 C132.194465,14.3969231 133.006904,16.7723077 132.468702,19.8246154 L130.42271,31.4 C129.824936,34.7907692 128.741341,37.44 127.171926,39.3476923 C125.602511,41.2553846 123.895464,42.6348718 122.050785,43.4861538 Z M122.774893,27.8492308 C121.079964,28.5712099 119.318285,29.1256525 117.515093,29.5046154 L114.473837,30.1538462 C112.869501,30.5784615 111.667789,31.1302564 110.868702,31.8092308 C110.175583,32.608453 109.698311,33.5711696 109.482111,34.6061538 C109.257175,35.88 109.460542,36.8953846 110.098374,37.6615385 C110.745449,38.3384615 111.786933,38.6769231 113.232068,38.6769231 C115.610842,38.6769231 117.599315,37.9989744 119.197489,36.6430769 C120.795663,35.2871795 121.80428,33.4215385 122.223338,31.0461538 L122.774893,27.8492308 Z" id="Shape" fill="#2B2B28"></path>
            <path d="M158.132953,20.6707692 C157.173638,18.8923077 155.591897,18.0030769 153.387732,18.0030769 C151.139125,17.9494069 148.978846,18.877453 147.471612,20.5446154 C145.910414,22.2328205 144.862767,24.5610256 144.328673,27.5292308 L141.247361,44.9292308 L132.607361,44.9292308 L140.310642,1.23692308 L144.624479,1.23692308 C145.713974,1.19362703 146.760475,1.66428058 147.450043,2.50769231 C148.158471,3.35383228 148.439,4.47774884 148.211127,5.55692308 L146.439372,15.5907692 C148.411412,13.0492308 150.856947,11.44 153.775977,10.7630769 C156.695007,10.0861538 159.336719,10.2553846 161.701113,11.2707692 C163.889905,12.2801099 165.689053,13.9751442 166.825335,16.0984615 C168.049643,18.2892308 168.315663,21.3333333 167.623395,25.2307692 L164.144593,44.9230769 L155.630927,44.9230769 L158.71224,27.3846154 C158.929885,26.232451 159.033096,25.0616453 159.020371,23.8892308 C158.974457,22.7628341 158.670896,21.6618864 158.132953,20.6707692 Z" id="Shape" fill="#2B2B28"></path>
            <path d="M177.409643,1.23076923 L182.0501,1.23076923 C183.154303,1.18769485 184.214931,1.66372815 184.91572,2.51692308 C185.619788,3.37601553 185.893178,4.50879416 185.658317,5.59384615 L185.186876,8.30769231 L176.161712,8.30769231 L177.409643,1.23076923 Z" id="Shape" fill="#2B2B28"></path>
            <path d="M77.1591441,8.75692308 C78.4286448,7.82153846 80.3380314,7.35384615 82.8873039,7.35384615 C85.5249073,7.35384615 87.5113267,7.90564103 88.8465621,9.00923077 C89.4976717,9.5902552 89.9825606,10.3335419 90.2516405,11.1630769 C90.7877889,12.9476923 92.0336662,13.84 93.9892725,13.84 L99.0549501,13.84 C99.6342368,9.60205128 98.7098431,6.17128205 96.2817689,3.54769231 C93.9132668,1.1825641 90.1407133,0 84.9641084,0 C79.4485592,0 75.0463909,1.14358974 71.7576034,3.43076923 C68.4544365,5.80205128 66.4361769,9.06871795 65.7028245,13.2307692 C65.2919829,15.6041026 65.372097,17.5528205 65.9431669,19.0769231 C66.2549927,20.7799738 67.2930036,22.2634614 68.7872183,23.1415385 C70.0505563,24.1671795 72.7631384,25.1415385 76.9249643,26.0646154 L77.8986591,26.32 L78.1328388,26.4461538 C85.4684165,28.1425641 88.8968902,30.345641 88.4182596,33.0553846 C88.1533756,34.7512949 87.1413971,36.2394376 85.660485,37.1107692 C84.1383167,38.0441026 82.0625392,38.5097436 79.4331526,38.5076923 C76.4627675,38.5076923 74.2339515,37.9148718 72.7467047,36.7292308 C71.3087589,35.7035897 70.6473039,33.9241026 70.7623395,31.3907692 L61.8080456,31.3907692 C61.2061626,36.2441026 62.265107,39.905641 64.9848787,42.3753846 C66.9784879,44.3723077 70.0813695,45.5476923 74.2565478,45.9292308 L73.5817404,49.0461538 C73.3492022,49.9568209 73.6300133,50.9217651 74.3150927,51.5661538 C75.0135235,52.2676923 75.9605136,52.6194872 77.1560628,52.6215385 L81.7009986,52.6215385 L83.2416548,45.5723077 C86.0088404,45.1057945 88.6469621,44.0637899 90.9849929,42.5138462 C94.497689,39.9661538 96.6546077,36.3989744 97.4557489,31.8123077 C97.8405515,29.8644295 97.7131561,27.8502094 97.0859914,25.9661538 C96.4327793,24.3462636 95.2955234,22.96674 93.8290442,22.0153846 L90.5258773,20.4769231 C89.8757204,20.3046154 89.0006277,20.0738462 87.9067618,19.7753846 C86.8128959,19.4769231 85.5433951,19.0769231 84.1198288,18.5692308 C83.0743664,18.3941006 82.0441482,18.1379416 81.0385164,17.8030769 C76.3138374,16.6994872 74.149729,15 74.5461912,12.7046154 C74.8014347,11.0721244 75.7551536,9.63123031 77.1591441,8.75692308 Z" id="Shape" fill="#2B2B28"></path>
            <path d="M175.699515,11.0769231 L180.287589,11.0769231 C181.37965,11.0328967 182.428746,11.5048304 183.119315,12.3507692 C183.820827,13.2014587 184.092315,14.3267006 183.855749,15.4030769 L178.642168,44.9230769 L169.706362,44.9230769 L175.699515,11.0769231 Z" id="Shape" fill="#2B2B28"></path>
            <path d="M211.840228,44.9230769 L207.372325,44.9230769 C206.096662,44.9230769 205.127076,44.52 204.463566,43.7138462 C203.800057,42.9076923 203.583338,41.8748718 203.813409,40.6153846 L206.86699,23.3138462 C207.226476,21.2789744 206.873153,19.7948718 205.807019,18.8615385 C204.730931,17.9250173 203.342288,17.4254669 201.915321,17.4615385 C200.367037,17.4717908 198.859976,17.960888 197.601484,18.8615385 C196.24776,19.7928205 195.392183,21.2769231 195.03475,23.3138462 L191.201598,44.9230769 L182.28428,44.9230769 L185.803138,25.0861538 C186.819971,19.32 189.00873,15.4615385 192.369415,13.5107692 C195.576238,11.6049215 199.201791,10.5125719 202.929073,10.3292308 C206.665678,10.3292308 209.932896,11.3046154 212.730728,13.2553846 C215.528559,15.2061538 216.403652,19.1497436 215.356006,25.0861538 L211.840228,44.9230769 Z" id="Shape" fill="#2B2B28"></path>
        </g>
    </g>
</svg>