<?xml version="1.0" encoding="utf-8"?>
<!-- Generator: Adobe Illustrator 22.0.1, SVG Export Plug-In . SVG Version: 6.00 Build 0)  -->
<svg version="1.1" id="katman_1" xmlns="http://www.w3.org/2000/svg" xmlns:xlink="http://www.w3.org/1999/xlink" x="0px" y="0px"
	 viewBox="0 0 500 317.5" style="enable-background:new 0 0 500 317.5;" xml:space="preserve">
<style type="text/css">
	.st0{fill:#FFFFFF;}
	.st1{fill:#636362;}
	.st2{fill:#73C9EB;}
</style>
<title>paraf</title>
<g>
	<g>
		<g>
			<path class="st0" d="M29.5,229.4l-9-14.2H22l8.2,13.1l7.8-13.1h1.3l-8.5,14.2V241h-1.3V229.4z"/>
			<path class="st0" d="M39.3,236c0-4.4,3.9-5.7,8.5-5.7h4.7v-1.8c0-3.9-1.6-5.6-5.3-5.6c-3,0-5.3,1.3-5.8,4.4h-1.2
				c0.5-3.7,3.6-5.4,7.1-5.4c4.2,0,6.5,2.2,6.5,6.6V241h-1.2v-3.2c-1.1,1.9-3.3,3.5-6.7,3.5C41.9,241.3,39.3,239.4,39.3,236z
				 M52.5,235.2v-3.9h-4.7c-4,0-7.3,0.9-7.3,4.7c0,2.7,1.9,4.3,5.3,4.3C49.5,240.2,52.5,238,52.5,235.2z"/>
			<path class="st0" d="M57.4,240.8l13-17.6H58.5v-1h13.8v0.3L59.4,240H72v1.1H57.4V240.8z"/>
			<path class="st0" d="M76.4,222.1h1.2V241h-1.2V222.1z"/>
			<path class="st0" d="M83.6,213.1h1.3V241h-1.3V213.1z"/>
			<path class="st0" d="M90.9,222.1h1.2V241h-1.2V222.1z"/>
			<path class="st0" d="M98,222.1h1.2v4c0.9-2.2,3.2-4.3,6.5-4.3c3.1,0,5.2,1.3,5.9,4.7c1.1-2.8,3.7-4.7,6.9-4.7
				c3.8,0,6.2,2,6.2,7.3V241h-1.2v-11.9c0-4.4-1.9-6.2-5.2-6.2c-3.1,0-6.4,2.3-6.4,6.6V241h-1.2v-11.9c0-4.4-1.9-6.2-5.2-6.2
				c-3.2,0-6.4,2.3-6.4,6.6V241H98V222.1z"/>
			<path class="st0" d="M153.8,235.7l4.6,5.3h-1.6l-3.7-4.3c-1.6,2.3-4,4.5-7.9,4.5c-4.7,0-7.4-2.9-7.4-6.9s3.2-6.2,6.5-7.9
				c-1.8-2.2-2.9-3.8-2.9-6c0-3.1,2.4-5.4,5.5-5.4s5.1,2.3,5.1,5.1c0,3.1-2.6,5.1-6,6.6l7,8.1l3.7-6.7h1.2L153.8,235.7z
				 M152.3,235.8l-7.4-8.6c-3,1.4-5.8,3.5-5.8,7c0,3.4,2.2,5.9,6.2,5.9C148.6,240.2,150.8,238.2,152.3,235.8z M145.4,226
				c3.1-1.5,5.4-3.1,5.4-5.8c0-2.4-1.5-4.1-4-4.1s-4.3,1.8-4.3,4.4C142.6,222.4,143.7,224,145.4,226z"/>
			<path class="st0" d="M177.4,216.3h-8.3v-1.1H187v1.1h-8.3V241h-1.3V216.3z"/>
			<path class="st0" d="M186,231.7v-0.3c0-5.6,3.6-9.6,8.6-9.6c4.7,0,8.1,3.2,8.1,9.1v0.5h-15.4c0,5.5,2.7,8.7,7.5,8.7
				c3.2,0,5.7-1.4,6.5-4.4h1.2c-0.9,3.5-3.8,5.5-7.7,5.5C189.3,241.3,186,237.3,186,231.7z M201.4,230.4c-0.1-5-2.9-7.5-6.9-7.5
				s-7,3-7.3,7.5H201.4z"/>
			<path class="st0" d="M207.1,213.1h1.2V241h-1.2V213.1z M208.4,231l9.9-8.9h1.5L210,231l10.5,10h-1.6L208.4,231z"/>
			<path class="st0" d="M224,222.1h1.2v4.1c0.9-2.3,3.5-4.4,7-4.4c4.1,0,6.8,2.2,6.8,7.5V241h-1.2v-11.7c0-4.4-2.1-6.4-5.7-6.4
				c-3.4,0-6.9,2.3-6.9,6.6V241H224V222.1z"/>
			<path class="st0" d="M243.3,231.7v-0.3c0-5.7,4.2-9.6,9.1-9.6s9,3.8,9,9.5v0.3c0,5.7-4.1,9.6-9,9.6
				C247.3,241.3,243.3,237.3,243.3,231.7z M260,231.7v-0.3c0-5.3-3.5-8.5-7.7-8.5s-7.8,3.3-7.8,8.5v0.3c0,5.2,3.5,8.5,7.8,8.5
				C256.5,240.2,260,237,260,231.7z"/>
			<path class="st0" d="M265.8,213.1h1.3V241h-1.3V213.1z"/>
			<path class="st0" d="M271.6,231.7v-0.3c0-5.7,4.2-9.6,9.1-9.6s9,3.8,9,9.5v0.3c0,5.7-4.1,9.6-9,9.6
				C275.6,241.3,271.6,237.3,271.6,231.7z M288.3,231.7v-0.3c0-5.3-3.5-8.5-7.7-8.5s-7.8,3.3-7.8,8.5v0.3c0,5.2,3.5,8.5,7.8,8.5
				C284.8,240.2,288.3,237,288.3,231.7z"/>
			<path class="st0" d="M291.3,246.6c2.1-0.2,2.8-1.2,2.8-3.5V222h1.2v21c0,3-1,4.5-4,4.6V246.6z M293.7,217c0-0.5,0.4-0.9,1-0.9
				c0.5,0,0.9,0.4,0.9,0.9s-0.4,1-0.9,1S293.7,217.5,293.7,217z"/>
			<path class="st0" d="M301,217c0-0.5,0.4-0.9,1-0.9c0.5,0,0.9,0.4,0.9,0.9s-0.4,1-0.9,1C301.4,218,301,217.5,301,217z
				 M301.3,222.1h1.2V241h-1.2V222.1z"/>
			<path class="st0" d="M317.4,215.2h1.3v12.2h16.2v-12.2h1.3V241h-1.3v-12.5h-16.2V241h-1.3V215.2z"/>
			<path class="st0" d="M342.3,217c0-0.5,0.4-0.9,1-0.9s0.9,0.4,0.9,0.9s-0.4,1-0.9,1S342.3,217.5,342.3,217z M342.6,222.1h1.2V241
				h-1.2V222.1z"/>
			<path class="st0" d="M347.8,240.8l13-17.6h-11.9v-1h13.8v0.3L349.8,240h12.6v1.1h-14.7v-0.3H347.8z"/>
			<path class="st0" d="M366.7,222.1h1.2v4c0.9-2.2,3.2-4.3,6.5-4.3c3.1,0,5.2,1.3,5.9,4.7c1.1-2.8,3.7-4.7,6.9-4.7
				c3.8,0,6.2,2,6.2,7.3V241h-1.2v-11.9c0-4.4-1.9-6.2-5.2-6.2c-3.1,0-6.4,2.3-6.4,6.6V241h-1.2v-11.9c0-4.4-1.9-6.2-5.2-6.2
				c-3.2,0-6.4,2.3-6.4,6.6V241h-1.2v-18.9H366.7z"/>
			<path class="st0" d="M397.7,231.7v-0.3c0-5.6,3.6-9.6,8.6-9.6c4.7,0,8.1,3.2,8.1,9.1v0.5H399c0,5.5,2.7,8.7,7.5,8.7
				c3.2,0,5.7-1.4,6.5-4.4h1.2c-0.9,3.5-3.8,5.5-7.7,5.5C401.1,241.3,397.7,237.3,397.7,231.7z M413.2,230.4c-0.1-5-2.9-7.5-6.9-7.5
				s-7,3-7.3,7.5H413.2z"/>
			<path class="st0" d="M419.6,236.6v-13.4h-2.9v-1h2.9v-4.3h1.2v4.3h5.3v1h-5.3v13.3c0,2.6,1.3,3.7,3.1,3.7c1,0,1.7-0.1,2.4-0.4
				v1.1c-0.6,0.2-1.3,0.4-2.5,0.4C421.2,241.3,419.6,239.7,419.6,236.6z"/>
			<path class="st0" d="M430.7,213.1h1.3V241h-1.3V213.1z"/>
			<path class="st0" d="M436.5,231.7v-0.3c0-5.6,3.6-9.6,8.6-9.6c4.7,0,8.1,3.2,8.1,9.1v0.5h-15.4c0,5.5,2.7,8.7,7.5,8.7
				c3.2,0,5.7-1.4,6.5-4.4h1.2c-0.9,3.5-3.8,5.5-7.7,5.5C439.8,241.3,436.5,237.3,436.5,231.7z M451.9,230.4c-0.1-5-2.9-7.5-6.9-7.5
				s-7,3-7.3,7.5H451.9z"/>
			<path class="st0" d="M457.6,222.1h1.2v4.3c0.9-2.4,3-4.4,6.5-4.5v1.1c-3.6,0.1-6.5,2.2-6.5,7.4V241h-1.2V222.1z"/>
			<path class="st0" d="M469.3,217c0-0.5,0.4-0.9,1-0.9s0.9,0.4,0.9,0.9s-0.4,1-0.9,1S469.3,217.5,469.3,217z M469.6,222.1h1.2V241
				h-1.2V222.1z"/>
		</g>
	</g>
	<path class="st0" d="M256.6,127.6c0-12.9,4.5-23.9,13.6-33.1c9.2-9.1,20.3-13.6,33.1-13.6c9.4-0.1,17.9,2.4,25.5,7.4v-6.1h21.3
		v112.6h-21.3v-67.2c0-7.1-2.5-13-7.4-17.9c-5-5-11-7.6-18-7.6c-7.1,0-13.1,2.5-18,7.6c-5,4.9-7.4,10.9-7.4,17.9v67.2h-21.3v-67.2
		H256.6z"/>
	<path class="st0" d="M113.2,194.8H91.9v-67.2c0-7.1-2.5-13-7.4-17.9c-5-5-11-7.6-18-7.6c-7.1,0-13.1,2.5-18,7.6
		c-5,4.9-7.4,10.9-7.4,17.9v67.2H19.6V82.1h21.3v6.1c7.6-5,16-7.5,25.5-7.4c12.9,0,23.9,4.5,33.1,13.6c9.1,9.2,13.6,20.3,13.6,33.1
		L113.2,194.8L113.2,194.8z"/>
	<path class="st0" d="M460.8,97.7c-11.3-11.3-24.9-16.9-40.8-16.9s-29.6,5.6-40.9,16.9c-3.3,3.3-6.1,6.9-8.5,10.6
		c3.1-3,7-5.6,11.6-7c2.6-0.8,5.3-1.2,7.9-1.2c6.3,0,11.6,2.3,15.5,4.9c4.4-1.9,9.1-2.8,14.3-2.8c10.1,0,18.6,3.6,25.7,10.7
		s10.7,15.6,10.7,25.7c0,10.1-3.6,18.7-10.7,25.8c-7,7-15.6,10.6-25.6,10.6c-10.1,0-18.6-3.6-25.7-10.7
		c-7.2-7.1-10.8-15.7-10.8-25.8c0-5,0.9-9.5,2.6-13.8c0.7-1.2,11.2-19,24.2-10c0,0-10.9-13.4-26.8-9.3c-13.1,3.3-17.9,13-19.7,19.2
		h-0.1c-0.1,0.4-0.2,0.8-0.2,1.2c-0.3,1.4-0.5,2.6-0.6,3.3c-0.5,3.1-0.7,6.2-0.7,9.4c0,15.9,5.6,29.6,16.9,40.9s25,16.9,40.9,16.9
		s29.5-5.6,40.8-16.9c11.3-11.3,16.9-25,16.9-40.9C477.6,122.6,472,109,460.8,97.7z"/>
	<path class="st0" d="M181.8,80.4c-31.9,0-57.7,25.8-57.7,57.7s25.8,57.7,57.7,57.7c13.8,0,26.5-4.9,36.4-13v11.9h21.3V138
		C239.5,106.2,213.7,80.4,181.8,80.4z M181.8,174.6c-20.2,0-36.5-16.4-36.5-36.5s16.4-36.5,36.5-36.5s36.5,16.4,36.5,36.5h-0.1v2.3
		C217.1,159.5,201.2,174.6,181.8,174.6z"/>
</g>
<g>
	<g>
		<g>
			<path class="st1" d="M28.7,224.7l-9.1-14.3h1.5l8.3,13.2l7.8-13.2h1.3l-8.6,14.3v11.7h-1.3V224.7z"/>
			<path class="st1" d="M38.7,231.4c0-4.4,4-5.7,8.6-5.7H52v-1.9c0-3.9-1.6-5.6-5.3-5.6c-3,0-5.4,1.3-5.9,4.4h-1.2
				c0.5-3.8,3.7-5.5,7.2-5.5c4.2,0,6.5,2.2,6.5,6.7v12.6H52v-3.2c-1.1,1.9-3.4,3.5-6.8,3.5C41.3,236.7,38.7,234.8,38.7,231.4z
				 M52,230.6v-3.9h-4.7c-4,0-7.3,0.9-7.3,4.7c0,2.8,1.9,4.3,5.4,4.3C49,235.7,52,233.4,52,230.6z"/>
			<path class="st1" d="M57,236.2l13.1-17.8h-12v-1.1h14v0.3l-13,17.7h12.8v1.1H57V236.2z"/>
			<path class="st1" d="M76.1,217.4h1.2v19.1h-1.2V217.4z"/>
			<path class="st1" d="M83.4,208.3h1.3v28.2h-1.3V208.3z"/>
			<path class="st1" d="M90.7,217.4H92v19.1h-1.2V217.4z"/>
			<path class="st1" d="M97.9,217.4h1.2v4c0.9-2.3,3.3-4.3,6.6-4.3c3.1,0,5.3,1.3,6,4.7c1.1-2.8,3.8-4.7,7-4.7c3.8,0,6.3,2,6.3,7.4
				v12h-1.2v-12c0-4.5-1.9-6.2-5.2-6.2c-3.2,0-6.4,2.3-6.4,6.7v11.6h-1.2v-12c0-4.5-1.9-6.2-5.2-6.2c-3.2,0-6.5,2.3-6.5,6.7v11.6
				h-1.2V217.4z"/>
			<path class="st1" d="M154.2,231.1l4.6,5.4h-1.6l-3.8-4.3c-1.6,2.3-4.1,4.6-7.9,4.6c-4.7,0-7.5-3-7.5-7c0-4,3.3-6.3,6.6-7.9
				c-1.8-2.2-2.9-3.9-2.9-6.1c0-3.2,2.4-5.5,5.6-5.5c3.2,0,5.2,2.3,5.2,5.2c0,3.1-2.6,5.1-6.1,6.6l7,8.1l3.7-6.7h1.2L154.2,231.1z
				 M152.8,231.2l-7.5-8.7c-3,1.5-5.9,3.6-5.9,7.1c0,3.5,2.2,6,6.2,6C149,235.6,151.2,233.6,152.8,231.2z M145.8,221.3
				c3.1-1.5,5.5-3.2,5.5-5.9c0-2.4-1.5-4.1-4-4.1c-2.5,0-4.3,1.8-4.3,4.4C143,217.7,144,219.2,145.8,221.3z"/>
			<path class="st1" d="M178.1,211.5h-8.4v-1.1h18.1v1.1h-8.4v25h-1.3V211.5z"/>
			<path class="st1" d="M186.8,227.1v-0.3c0-5.7,3.6-9.7,8.6-9.7c4.7,0,8.2,3.2,8.2,9.2v0.5h-15.5c0,5.5,2.7,8.8,7.6,8.8
				c3.3,0,5.8-1.5,6.5-4.4h1.2c-0.9,3.5-3.8,5.5-7.8,5.5C190.1,236.7,186.8,232.7,186.8,227.1z M202.4,225.8c-0.1-5-2.9-7.6-6.9-7.6
				c-4,0-7,3-7.3,7.6H202.4z"/>
			<path class="st1" d="M208.1,208.3h1.2v28.2h-1.2V208.3z M209.4,226.3l10-9h1.5l-10,8.9l10.6,10.1H220L209.4,226.3z"/>
			<path class="st1" d="M225.1,217.4h1.2v4.2c0.9-2.3,3.6-4.4,7.1-4.4c4.1,0,6.8,2.3,6.8,7.6v11.8h-1.2v-11.8c0-4.5-2.2-6.5-5.8-6.5
				c-3.4,0-6.9,2.3-6.9,6.7v11.6h-1.2V217.4z"/>
			<path class="st1" d="M244.6,227.1v-0.3c0-5.7,4.2-9.7,9.1-9.7c5,0,9,3.8,9,9.6v0.3c0,5.8-4.1,9.7-9.1,9.7
				C248.7,236.7,244.6,232.7,244.6,227.1z M261.5,227v-0.3c0-5.4-3.6-8.6-7.8-8.6c-4.3,0-7.9,3.3-7.9,8.6v0.3c0,5.2,3.5,8.6,7.8,8.6
				C258,235.6,261.5,232.4,261.5,227z"/>
			<path class="st1" d="M267.3,208.3h1.3v28.2h-1.3V208.3z"/>
			<path class="st1" d="M273.2,227.1v-0.3c0-5.7,4.2-9.7,9.1-9.7c5,0,9,3.8,9,9.6v0.3c0,5.8-4.1,9.7-9.1,9.7
				C277.2,236.7,273.2,232.7,273.2,227.1z M290.1,227v-0.3c0-5.4-3.6-8.6-7.8-8.6c-4.3,0-7.9,3.3-7.9,8.6v0.3c0,5.2,3.5,8.6,7.8,8.6
				C286.5,235.6,290.1,232.4,290.1,227z"/>
			<path class="st1" d="M293.1,242.1c2.2-0.2,2.8-1.2,2.8-3.5v-21.2h1.2v21.2c0,3.1-1.1,4.6-4,4.7V242.1z M295.5,212.2
				c0-0.5,0.4-0.9,1-0.9c0.5,0,0.9,0.4,0.9,0.9s-0.4,1-0.9,1C296,213.2,295.5,212.7,295.5,212.2z"/>
			<path class="st1" d="M302.8,212.2c0-0.5,0.4-0.9,1-0.9c0.5,0,0.9,0.4,0.9,0.9s-0.4,1-0.9,1C303.3,213.2,302.8,212.7,302.8,212.2z
				 M303.2,217.4h1.2v19.1h-1.2V217.4z"/>
			<path class="st1" d="M319.4,210.4h1.3v12.4h16.4v-12.4h1.3v26.1h-1.3v-12.6h-16.4v12.6h-1.3V210.4z"/>
			<path class="st1" d="M344.5,212.2c0-0.5,0.4-0.9,1-0.9c0.5,0,0.9,0.4,0.9,0.9s-0.4,1-0.9,1C344.9,213.2,344.5,212.7,344.5,212.2z
				 M344.9,217.4h1.2v19.1h-1.2V217.4z"/>
			<path class="st1" d="M350.1,236.2l13.1-17.8h-12v-1.1h14v0.3l-13,17.7h12.8v1.1h-14.8V236.2z"/>
			<path class="st1" d="M369.1,217.4h1.2v4c0.9-2.3,3.3-4.3,6.6-4.3c3.1,0,5.3,1.3,6,4.7c1.1-2.8,3.8-4.7,7-4.7c3.8,0,6.3,2,6.3,7.4
				v12H395v-12c0-4.5-1.9-6.2-5.2-6.2c-3.2,0-6.4,2.3-6.4,6.7v11.6h-1.2v-12c0-4.5-1.9-6.2-5.2-6.2c-3.2,0-6.5,2.3-6.5,6.7v11.6
				h-1.2V217.4z"/>
			<path class="st1" d="M400.5,227.1v-0.3c0-5.7,3.6-9.7,8.6-9.7c4.7,0,8.2,3.2,8.2,9.2v0.5h-15.5c0,5.5,2.7,8.8,7.6,8.8
				c3.3,0,5.8-1.5,6.5-4.4h1.2c-0.9,3.5-3.8,5.5-7.8,5.5C403.9,236.7,400.5,232.7,400.5,227.1z M416.1,225.8c-0.1-5-2.9-7.6-6.9-7.6
				c-4,0-7,3-7.3,7.6H416.1z"/>
			<path class="st1" d="M422.6,231.9v-13.5h-2.9v-1.1h2.9V213h1.2v4.3h5.3v1.1h-5.3v13.4c0,2.6,1.3,3.7,3.2,3.7c1,0,1.7-0.1,2.4-0.4
				v1.1c-0.6,0.2-1.3,0.4-2.5,0.4C424.2,236.7,422.6,235.1,422.6,231.9z"/>
			<path class="st1" d="M433.8,208.3h1.3v28.2h-1.3V208.3z"/>
			<path class="st1" d="M439.7,227.1v-0.3c0-5.7,3.6-9.7,8.6-9.7c4.7,0,8.2,3.2,8.2,9.2v0.5h-15.5c0,5.5,2.7,8.8,7.6,8.8
				c3.3,0,5.8-1.5,6.5-4.4h1.2c-0.9,3.5-3.8,5.5-7.8,5.5C443,236.7,439.7,232.7,439.7,227.1z M455.2,225.8c-0.1-5-2.9-7.6-6.9-7.6
				c-4,0-7,3-7.3,7.6H455.2z"/>
			<path class="st1" d="M460.9,217.4h1.2v4.4c0.9-2.4,3.1-4.4,6.6-4.6v1.1c-3.6,0.1-6.6,2.2-6.6,7.5v10.6h-1.2V217.4z"/>
			<path class="st1" d="M472.7,212.2c0-0.5,0.4-0.9,1-0.9c0.5,0,0.9,0.4,0.9,0.9s-0.4,1-0.9,1C473.1,213.2,472.7,212.7,472.7,212.2z
				 M473.1,217.4h1.2v19.1h-1.2V217.4z"/>
		</g>
	</g>
	<path class="st2" d="M258,121.9c0-13,4.6-24.1,13.8-33.5c9.3-9.2,20.5-13.8,33.5-13.8c9.5-0.1,18.1,2.4,25.7,7.5v-6.1h21.5v113.7
		H331v-67.9c0-7.1-2.5-13.2-7.5-18.1c-5-5.1-11.1-7.6-18.2-7.6c-7.1,0-13.2,2.5-18.2,7.6c-5,4.9-7.5,11-7.5,18.1v67.9H258V121.9z"/>
	<path class="st2" d="M113.3,189.8H91.8v-67.9c0-7.1-2.5-13.2-7.5-18.1c-5-5.1-11.1-7.6-18.2-7.6c-7.1,0-13.2,2.5-18.2,7.6
		c-5,4.9-7.5,11-7.5,18.1v67.9H18.8V76.1h21.5v6.1c7.6-5.1,16.2-7.6,25.7-7.5c13,0,24.1,4.6,33.5,13.8c9.2,9.3,13.8,20.5,13.8,33.5
		V189.8z"/>
	<path class="st2" d="M464.1,91.7c-11.4-11.4-25.2-17-41.2-17c-16.1,0-29.9,5.7-41.3,17c-3.3,3.4-6.2,6.9-8.5,10.7
		c3.1-3,7-5.6,11.8-7.1c2.6-0.8,5.3-1.2,8-1.2c6.3,0,11.7,2.3,15.7,5c4.4-1.9,9.2-2.9,14.4-2.9c10.2,0,18.8,3.6,25.9,10.8
		c7.2,7.1,10.8,15.8,10.8,25.9c0,10.2-3.6,18.8-10.8,26c-7.1,7.2-15.8,10.8-25.9,10.8c-10.2,0-18.8-3.6-25.9-10.8
		c-7.3-7.2-10.9-15.9-10.9-26c0-5,0.9-9.6,2.6-13.9c0.7-1.2,11.4-19.2,24.5-10.1c0,0-11-13.5-27-9.4c-13.2,3.4-18.1,13.1-19.9,19.4
		h-0.1c-0.1,0.4-0.2,0.8-0.2,1.2c-0.3,1.4-0.5,2.6-0.6,3.4c-0.5,3.1-0.7,6.3-0.7,9.5c0,16.1,5.7,29.9,17,41.3
		c11.4,11.4,25.2,17,41.3,17c16,0,29.7-5.7,41.2-17c11.4-11.4,17-25.2,17-41.3C481.2,116.9,475.5,103.2,464.1,91.7z"/>
	<path class="st2" d="M182.5,74.3c-32.2,0-58.3,26.1-58.3,58.3c0,32.2,26.1,58.3,58.3,58.3c14,0,26.8-4.9,36.8-13.1v12h21.5v-57.2
		C240.8,100.4,214.7,74.3,182.5,74.3z M182.5,169.4c-20.4,0-36.9-16.5-36.9-36.9s16.5-36.9,36.9-36.9s36.9,16.5,36.9,36.9h-0.1v2.3
		C218.1,154.1,202.1,169.4,182.5,169.4z"/>
</g>
</svg>
